<?xml version="1.0" encoding="UTF-8"?>
<svg viewBox="0 0 128 128" xmlns="http://www.w3.org/2000/svg" xmlns:xlink="http://www.w3.org/1999/xlink">
 <defs>
  <filter id="bm" x="-.34802" y="-.34085" width="1.696" height="1.6817">
   <feGaussianBlur stdDeviation="5.46506"/>
  </filter>
  <filter id="bl" x="-.51975" y="-.45339" width="2.0395" height="1.9068">
   <feGaussianBlur stdDeviation="4.15116"/>
  </filter>
  <filter id="bk" x="-.07002" y="-.3401" width="1.14" height="1.6802">
   <feGaussianBlur stdDeviation="3.96783"/>
  </filter>
  <linearGradient id="a">
   <stop stop-color="#fff" offset="0"/>
   <stop stop-color="#fff" stop-opacity="0" offset="1"/>
  </linearGradient>
  <linearGradient id="b">
   <stop offset="0"/>
   <stop stop-opacity="0" offset="1"/>
  </linearGradient>
  <linearGradient id="k">
   <stop stop-color="#eeeeec" offset="0"/>
   <stop stop-color="#babdb6" offset="1"/>
  </linearGradient>
  <linearGradient id="t">
   <stop stop-color="#e9b96e" offset="0"/>
   <stop stop-color="#e9b96e" stop-opacity="0" offset="1"/>
  </linearGradient>
  <linearGradient id="e">
   <stop stop-color="#eeeeec" offset="0"/>
   <stop stop-color="#eeeeec" stop-opacity="0" offset="1"/>
  </linearGradient>
  <linearGradient id="c">
   <stop stop-opacity="0" offset="0"/>
   <stop stop-opacity=".57196" offset="1"/>
  </linearGradient>
  <linearGradient id="s" x2="0" y1="46" y2="35" gradientUnits="userSpaceOnUse">
   <stop stop-opacity="0" offset="0"/>
   <stop offset=".5"/>
   <stop stop-opacity="0" offset="1"/>
  </linearGradient>
  <linearGradient id="bi" x2="0" y1="70.982" y2="47.711" gradientUnits="userSpaceOnUse">
   <stop stop-color="#eaba6f" offset="0"/>
   <stop stop-color="#b97a1b" offset="1"/>
  </linearGradient>
  <linearGradient id="bf" x1="52.892" x2="60.814" y1="36.24" y2="36.273" gradientUnits="userSpaceOnUse">
   <stop stop-color="#729fcf" offset="0"/>
   <stop stop-color="#295ead" offset="1"/>
  </linearGradient>
  <linearGradient id="bd" x1="24.518" x2="25.911" y1="22.43" y2="23.831" gradientTransform="matrix(.71182 -.71182 .70711 .70711 20.98 22.298)" gradientUnits="userSpaceOnUse">
   <stop stop-color="#eeeeec" offset="0"/>
   <stop stop-color="#a2a298" offset="1"/>
  </linearGradient>
  <linearGradient id="bc" x1="-6.9787" x2="-9.9043" y1="37.127" y2="36.848" gradientTransform="matrix(.58178 0 0 .67875 57.544 10.506)" gradientUnits="userSpaceOnUse">
   <stop stop-color="#fff" offset="0"/>
   <stop stop-color="#fff" stop-opacity=".29379" offset="1"/>
  </linearGradient>
  <linearGradient id="bb" x1="54.687" x2="55.634" gradientUnits="userSpaceOnUse">
   <stop stop-color="#0c1d35" offset="0"/>
   <stop stop-color="#fff" stop-opacity=".29379" offset="1"/>
  </linearGradient>
  <linearGradient id="q" x1="101.75" x2="84.875" y1="16.75" y2="23.5" gradientUnits="userSpaceOnUse">
   <stop stop-color="#d3d7cf" offset="0"/>
   <stop stop-color="#eeeeec" offset="1"/>
  </linearGradient>
  <linearGradient id="p" x1="101.76" x2="84.311" y1="23.366" y2="40.944" gradientUnits="userSpaceOnUse">
   <stop stop-color="#888a85" offset="0"/>
   <stop stop-color="#555753" offset="1"/>
  </linearGradient>
  <linearGradient id="n" x1="-5.7611" x2="-12.692" y1="40.213" y2="44.515" gradientTransform="matrix(.99822 0 0 1.1272 101.98 -16.992)" gradientUnits="userSpaceOnUse">
   <stop stop-color="#2e3436" offset="0"/>
   <stop stop-color="#729fcf" offset="1"/>
  </linearGradient>
  <linearGradient id="az" x1="51.339" x2="63.581" y1="66.59" y2="79.274" gradientUnits="userSpaceOnUse">
   <stop stop-color="#d3d7cf" offset="0"/>
   <stop stop-color="#888a85" offset="1"/>
  </linearGradient>
  <linearGradient id="ax" x1="53.638" x2="58.897" y1="67.385" y2="73.838" gradientUnits="userSpaceOnUse">
   <stop stop-color="#888a85" offset="0"/>
   <stop stop-color="#d3d7cf" offset="1"/>
  </linearGradient>
  <linearGradient id="au" x1="291.79" x2="293.15" gradientUnits="userSpaceOnUse">
   <stop stop-color="#8f5902" offset="0"/>
   <stop stop-color="#8f5902" stop-opacity="0" offset="1"/>
  </linearGradient>
  <linearGradient id="ar" x1="307.88" x2="312.6" y1="59.623" y2="80.954" gradientUnits="userSpaceOnUse">
   <stop stop-color="#eeeeec" offset="0"/>
   <stop stop-color="#e9b96e" offset="1"/>
  </linearGradient>
  <linearGradient id="ao" x1="15.75" x2="4.5266" y1="37" y2="-.5236" gradientTransform="matrix(0 -1 1 0 -22.969 49.031)" gradientUnits="userSpaceOnUse">
   <stop stop-color="#fce94f" stop-opacity=".78431" offset="0"/>
   <stop stop-color="#edd400" stop-opacity=".78431" offset="1"/>
  </linearGradient>
  <linearGradient id="aj" x1="330.2" x2="358.03" y1="59.783" y2="84.871" gradientUnits="userSpaceOnUse">
   <stop stop-color="#babdb6" offset="0"/>
   <stop stop-color="#ededed" offset=".24743"/>
   <stop stop-color="#b6b9b1" offset=".53371"/>
   <stop stop-color="#e9eae8" offset=".83192"/>
   <stop stop-color="#b5b9b2" offset="1"/>
  </linearGradient>
  <linearGradient id="ai" x1="335.53" x2="360.79" y1="49.363" y2="103.3" gradientUnits="userSpaceOnUse">
   <stop stop-color="#888a85" offset="0"/>
   <stop stop-color="#babdb6" offset="1"/>
  </linearGradient>
  <linearGradient id="ah" x1="349.03" x2="350.03" y1="60.11" y2="90.735" gradientUnits="userSpaceOnUse">
   <stop stop-color="#fff" stop-opacity=".15385" offset="0"/>
   <stop stop-color="#fff" offset=".5102"/>
   <stop stop-color="#fff" stop-opacity="0" offset="1"/>
  </linearGradient>
  <linearGradient id="ag" x2="0" y1="61.316" y2="59.732" gradientUnits="userSpaceOnUse">
   <stop stop-color="#fff" offset="0"/>
   <stop stop-color="#eeeeec" stop-opacity="0" offset="1"/>
  </linearGradient>
  <linearGradient id="af" x2="0" y1="67.061" y2="63.481" gradientUnits="userSpaceOnUse">
   <stop stop-color="#888a85" offset="0"/>
   <stop stop-color="#cfd0ce" offset=".70408"/>
   <stop stop-color="#888a85" offset="1"/>
  </linearGradient>
  <linearGradient id="ad" x2="0" y1="55.261" y2="56.745" gradientUnits="userSpaceOnUse">
   <stop stop-color="#babdb6" offset="0"/>
   <stop stop-color="#555753" stop-opacity="0" offset="1"/>
  </linearGradient>
  <linearGradient id="bj" x1="20.781" x2="20.812" y1="24.594" y2="23.531" gradientUnits="userSpaceOnUse" xlink:href="#b"/>
  <linearGradient id="r" x1="289.29" x2="291.54" y1="74.698" y2="89.073" gradientUnits="userSpaceOnUse" xlink:href="#a"/>
  <linearGradient id="bh" x2="0" y1="60.948" y2="65.028" gradientUnits="userSpaceOnUse" xlink:href="#t"/>
  <linearGradient id="bg" x1="316.84" x2="314.8" gradientUnits="userSpaceOnUse" xlink:href="#t"/>
  <linearGradient id="be" x1="54.166" x2="64.878" y1="42.529" y2="34.083" gradientUnits="userSpaceOnUse" xlink:href="#a"/>
  <linearGradient id="ba" x1="57.349" x2="59.35" y1="37.497" y2="37.506" gradientUnits="userSpaceOnUse" xlink:href="#b"/>
  <linearGradient id="o" x1="97.366" x2="68.212" y1="8.7415" y2="20.437" gradientUnits="userSpaceOnUse" xlink:href="#a"/>
  <linearGradient id="m" x1="93.686" x2="96.311" y1="11.615" y2="3.2396" gradientTransform="matrix(.76547 -.76547 .76547 .76547 -64.343 78.596)" gradientUnits="userSpaceOnUse" xlink:href="#a"/>
  <linearGradient id="l" x2="0" y1="16.751" y2="6.8089" gradientUnits="userSpaceOnUse" xlink:href="#a"/>
  <linearGradient id="ay" x1="14.375" x2="30.438" y1="31.062" y2="44.062" gradientUnits="userSpaceOnUse" xlink:href="#a"/>
  <linearGradient id="aw" x1="20.807" x2="17.449" y1="36.825" y2="30.901" gradientUnits="userSpaceOnUse" xlink:href="#e"/>
  <linearGradient id="av" x1="17.66" x2="23.032" y1="36.68" y2="31.111" gradientUnits="userSpaceOnUse" xlink:href="#e"/>
  <linearGradient id="at" x1="24.518" x2="25.911" y1="22.43" y2="23.831" gradientTransform="matrix(-.71963 -.19283 -.19155 .71487 84.974 6.7325)" gradientUnits="userSpaceOnUse" xlink:href="#k"/>
  <linearGradient id="as" x2="0" y1="1.734" y2="7.1932" gradientTransform="matrix(-.64093 .37004 .37004 .64093 88.755 -17.772)" gradientUnits="userSpaceOnUse" xlink:href="#e"/>
  <linearGradient id="aq" x2="0" y1="74.898" y2="76.997" gradientUnits="userSpaceOnUse" xlink:href="#b"/>
  <linearGradient id="ap" x2="0" y1="65.949" y2="64.006" gradientUnits="userSpaceOnUse" xlink:href="#b"/>
  <linearGradient id="an" x1="24.375" x2="-6.5938" gradientTransform="matrix(0 -1 1 0 -22.969 49.031)" gradientUnits="userSpaceOnUse" xlink:href="#a"/>
  <linearGradient id="am" x1="21.625" x2="5.241" gradientTransform="matrix(0 -1 1 0 -22.969 49.031)" gradientUnits="userSpaceOnUse" xlink:href="#a"/>
  <linearGradient id="al" x1="11.225" x2="8.9999" gradientTransform="matrix(0 -1 1 0 -22.969 49.031)" gradientUnits="userSpaceOnUse" xlink:href="#b"/>
  <linearGradient id="ak" x1="14.625" x2="20.625" y1="28.125" y2="10.625" gradientTransform="matrix(0 -1 1 0 -22.969 49.031)" gradientUnits="userSpaceOnUse" xlink:href="#a"/>
  <linearGradient id="j" x1="345.16" x2="351.66" y1="53.235" y2="129.86" gradientUnits="userSpaceOnUse" xlink:href="#a"/>
  <linearGradient id="i" x2="0" y1="70.285" y2="74.235" gradientUnits="userSpaceOnUse" xlink:href="#b"/>
  <linearGradient id="ae" x1="344.57" x2="346.5" gradientUnits="userSpaceOnUse" xlink:href="#a"/>
  <radialGradient id="v" cx="3.0312" cy="40.625" r="13" gradientTransform="matrix(1.4507 0 0 1.2624 -1.366 -18.002)" gradientUnits="userSpaceOnUse">
   <stop stop-color="#c4a000" offset="0"/>
   <stop stop-color="#c4a000" stop-opacity="0" offset="1"/>
  </radialGradient>
  <radialGradient id="y" cx="210.89" cy="506.35" r="68" gradientTransform="matrix(1.4028 1.6439e-6 -1.4521e-7 .20588 -89.845 403.11)" gradientUnits="userSpaceOnUse" xlink:href="#b"/>
  <radialGradient id="h" cx="233.5" cy="409.86" r="15.5" gradientTransform="matrix(.3871 1.5161 -1.4234 .36342 726.51 -93.107)" gradientUnits="userSpaceOnUse" xlink:href="#c"/>
  <radialGradient id="x" cx="392.24" cy="402.71" r="3.625" gradientTransform="matrix(1.2438 .39012 -.39366 1.2551 62.891 -255.76)" gradientUnits="userSpaceOnUse" xlink:href="#c"/>
  <radialGradient id="ac" cx="132.87" cy="408.73" r="10.283" gradientTransform="matrix(.86758 -.043394 .023363 .46709 122.67 -126.47)" gradientUnits="userSpaceOnUse" xlink:href="#c"/>
  <radialGradient id="ab" cx="208.35" cy="408.81" r="58.521" gradientTransform="matrix(1.163 -2.8812e-7 1.1031e-8 .057457 58.997 33.437)" gradientUnits="userSpaceOnUse" xlink:href="#c"/>
  <radialGradient id="aa" cx="136.62" cy="419.19" r="7.9448" gradientTransform="matrix(.89087 .060974 -.065751 .96066 156.02 -346.67)" gradientUnits="userSpaceOnUse" xlink:href="#c"/>
  <radialGradient id="z" cx="216.99" cy="497.96" r="65" gradientTransform="matrix(.51027 1.0072 -.96511 .48897 655.23 -406.14)" gradientUnits="userSpaceOnUse" xlink:href="#c"/>
  <radialGradient id="g" cx="5" cy="41.5" r="5" gradientTransform="matrix(.99002 0 0 1.1 32.115 -5.15)" gradientUnits="userSpaceOnUse" xlink:href="#b"/>
  <radialGradient id="f" cx="5" cy="41.5" r="5" gradientTransform="matrix(.99001 0 0 1.1 -14.885 -86.15)" gradientUnits="userSpaceOnUse" xlink:href="#b"/>
  <radialGradient id="w" cx="56.344" cy="71.209" r="8.6875" gradientUnits="userSpaceOnUse" xlink:href="#b"/>
  <radialGradient id="d" cx="28.638" cy="43.934" r="10.076" gradientTransform="matrix(1 0 0 .29825 0 30.831)" gradientUnits="userSpaceOnUse" xlink:href="#b"/>
  <radialGradient id="u" cx="24.5" cy="14" r="10.5" gradientTransform="matrix(1 0 0 .66667 319.03 56.401)" gradientUnits="userSpaceOnUse" xlink:href="#k"/>
 </defs>
 <g transform="translate(-233.42 -11.735)">
  <path d="m245.91 71.3s10.25-16 11.25-9.5-8 7.5-11.25 9.5z" fill="#f00" fill-rule="evenodd"/>
  <path d="m245.91 71.3s10.25-16 11.25-9.5-8 7.5-11.25 9.5z" fill="url(#aa)" fill-rule="evenodd"/>
  <path d="m241.75 63.307s18.962-1.2309 13.757-5.2505-10.434 3.3735-13.757 5.2505z" fill="#f00" fill-rule="evenodd"/>
  <path transform="matrix(.7548 0 0 .61103 146.27 -182.83)" d="m274 507.36c0 7.728-30.464 14-68 14s-68-6.272-68-14 30.464-14 68-14 68 6.272 68 14z" fill="url(#y)" filter="url(#bk)"/>
  <path d="m348.1 83.695c0 3.4523-0.37818 26.777-1.0954 30.015-1.7638 8.8818-7.4732 13.995-16.047 15.942-3.985 0.7434-8.5178-15.558-13.437-15.648s-10.225 16.028-15.757 16.028c-5.5573 0-10.887-16.128-15.826-16.053s-9.4866 16.353-13.48 15.582c-9.0418-1.5005-13.769-7.6856-15.999-16.143-0.67582-3.1476-1.0316-26.374-1.0316-29.722 0-25.578 20.759-46.336 46.336-46.336s46.336 20.759 46.336 46.336z" fill="#f1e06b"/>
  <path d="m348.1 83.695c0 3.4523-0.37818 26.777-1.0954 30.015-1.7638 8.8818-7.4732 13.995-16.047 15.942-3.985 0.7434-8.5178-15.558-13.437-15.648s-10.225 16.028-15.757 16.028c-5.5573 0-10.887-16.128-15.826-16.053s-9.4866 16.353-13.48 15.582c-9.0418-1.5005-13.769-7.6856-15.999-16.143-0.67582-3.1476-1.0316-26.374-1.0316-29.722 0-25.578 20.759-46.336 46.336-46.336s46.336 20.759 46.336 46.336z" fill="url(#z)"/>
  <g transform="matrix(.81618 -.21277 .20188 .77439 -27.797 101.39)">
   <path d="m353.53 58.235h5c0-1.3096-3.2224-2.6534-5-3v3z" fill="#babdb6" fill-rule="evenodd" stroke="#888a85"/>
   <path d="m352.53 64.235h4v2h-4z" fill="#eeeeec" fill-rule="evenodd" stroke="#babdb6" stroke-linecap="round" stroke-miterlimit="10"/>
   <path transform="matrix(2.2997 0 0 .83362 275.87 59.105)" d="m38.714 43.934a10.076 3.0052 0 1 1 -20.153 0 10.076 3.0052 0 1 1 20.153 0z" fill="url(#d)" fill-rule="evenodd" opacity=".1"/>
   <g transform="translate(339.03 54.735)">
    <path d="m-14.46875,40.53125h35v-5h-4c.00621-.16634 0-.39424 0-.5625 0-7.452-6.048-13.5-13.5-13.5s-13.5,6.048-13.5,13.5c0,.16826.02504.39616.03125.5625h-4.03125v5zm9-5.5625c0-4.692 3.808-8.5 8.5-8.5s8.5,3.808 8.5,8.5c0,.1671.00963.39769 0,.5625h-17c-.00963-.16481 0-.3954 0-.5625z" fill="url(#ao)" fill-rule="evenodd" stroke="#c4a000" stroke-linecap="round" stroke-linejoin="round"/>
    <path d="m-13.46875,39.53125h33v-3h-3c-.27071.0001-.5299-.10954-.71836-.30388s-.29007-.45679-.28164-.72737c.00401-.10747 0-.33838 0-.53125 0-6.91094-5.58906-12.5-12.5-12.5s-12.5,5.58906-12.5,12.5c0,.06907.02257.29881.03125.53125 .00843.27058-.09319.53302-.28164.72737s-.44764.30399-.71836.30388h-3.03125v3z" fill="none" stroke="url(#an)" stroke-linecap="round"/>
    <path d="m-9.96875,32.875 1.40625.40625c.07624-.32807.17866-.65154.28125-.96875l-1.4375-.40625-.25.96875zm1.21875-3.4375 1.34375.8125c.15646-.285.3217-.57343.5-.84375l-1.375-.84375-.46875.875zm2-3 1.21875,1.28125c.23108-.24168.46843-.46588.71875-.6875l-1.25-1.3125-.6875.71875zm2.71875-2.34375 .90625,1.6875c.27146-.16611.55872-.32443.84375-.46875l-.9375-1.71875-.8125.5zm3.15625-1.53125 .5,1.96875c.30077-.09073.59612-.1519.90625-.21875l-.5-2-.90625.25zm3.4375,1.5c.15631-.00616.31098-.03125.46875-.03125s.31244.02509.46875.03125v-2.09375h-.9375v2.09375zm2.96875.25c.31013.06685.60548.12802.90625.21875l.5-1.96875-.90625-.25-.5,2zm2.8125,1c.28503.14432.57229.30264.84375.46875l.90625-1.6875-.8125-.5-.9375,1.71875zm2.53125,1.71875c.25032.22162.48767.44582.71875.6875l1.21875-1.28125-.6875-.71875-1.25,1.3125zm2.09375,2.375c.1783.27032.34354.55875.5.84375l1.34375-.8125-.46875-.875-1.375.84375zm1.375,2.90625c.10259.31721.20501.64068.28125.96875l1.40625-.40625-.25-.96875-1.4375.40625z" fill="url(#v)" fill-rule="evenodd"/>
    <path d="m-6.46875,35.6875c-.00147-.03123-.00147-.06252 0-.09375-.01506-.25778 0-.49632 0-.625 0-5.23306 4.26694-9.5 9.5-9.5s9.5,4.26694 9.5,9.5c0,.12868.01506.36721 0,.625-.0331.52771-.47125.93848-1,.9375h-17c-.49659.00605-.9224-.35322-1-.84375z" fill="none" stroke="url(#am)" stroke-linecap="round"/>
    <path d="m-10.969 40.031h1v-2h-1v2zm2 0h1v-3h-1v3zm2 0h1v-2h-1v2zm2 0h1v-3h-1v3zm2 0h1v-2h-1v2zm2 0h1v-3h-1v3zm2 0h1v-2h-1v2zm2 0h1v-3h-1v3zm2 0h1v-2h-1v2zm2 0h1v-3h-1v3zm2 0h1v-2h-1v2zm2 0h1v-3h-1v3zm2 0h1v-2h-1v2zm2 0h1v-3h-1v3zm2 0h1v-2h-1v2z" fill="url(#al)" fill-rule="evenodd" opacity=".2"/>
    <path d="m-13.96875,40.03125h14.5625c-.21929-1.39782.16596-2.72032.875-4h-6.9375c-.24332.00429-.45439-.16721-.5-.40625-.0013-.02081-.0013-.04169 0-.0625-.01234-.2113 0-.44586 0-.59375 0-4.96253 4.03747-9 9-9 1.72114,0 3.31876.50228 4.6875,1.34375 .59174-1.50896.57908-3.05586-.625-4.6875-1.27633-.4186-2.64591-.65625-4.0625-.65625-7.18147,0-13,5.81853-13,13 0,.11866.02381.33186.03125.53125 .00862.13793-.03028.27436-.125.375s-.2368.15651-.375.15625h-3.53125v4z" fill="url(#ak)" fill-rule="evenodd" opacity=".66045"/>
   </g>
   <path d="m347.53 77.36v5.8438c1.8504 1.5596 3.0312 3.8924 3.0312 6.5-1e-5 0.1671 0.00963 0.39769 0 0.5625h-3.0312v3.9688h2v1.0312h2.0625v-1.0312h1.9375v-11.625c-1.4245-2.2947-3.5109-4.1442-6-5.25z" fill-rule="evenodd" opacity=".1" stroke="#000" stroke-linecap="round"/>
   <path transform="matrix(1.4561 0 0 .66724 307.03 68.415)" d="m38.714 43.934a10.076 3.0052 0 1 1 -20.153 0 10.076 3.0052 0 1 1 20.153 0z" fill="url(#d)" fill-rule="evenodd" opacity=".07"/>
   <path transform="matrix(.42982 0 0 .49077 337.13 76.698)" d="m38.714 43.934a10.076 3.0052 0 1 1 -20.153 0 10.076 3.0052 0 1 1 20.153 0z" fill="url(#d)" fill-rule="evenodd" opacity=".20642"/>
   <path d="m348.53 92.235h2.0581v6h-2.0581z" fill="#d3d7cf" fill-rule="evenodd" stroke="#888a85" stroke-linecap="round" stroke-linejoin="round"/>
   <path d="m352.53 52.235h-7c-2.0349 0-11.028 2.0277-11.028 2.0277-0.8688 0.5016-0.97227 1.4131-0.97227 2.9723h11c0-1.2058 0.77135-1 2-1v37h6v-35.969c2.2574 0 6-1.498 6-3.0312h-6v-2z" fill="url(#aj)" fill-rule="evenodd" stroke="url(#ai)"/>
   <path d="m347.03 59.735v1h3v-1h-3zm0 2v1h2v-1h-2zm0 2v1h3v-1h-3zm0 2v1h2v-1h-2zm0 2v1h3v-1h-3zm0 2v1h2v-1h-2zm0 2v1h3v-1h-3zm0 2v1h2v-1h-2zm0 2v1h3v-1h-3zm0 2v1h2v-1h-2zm0 2v1h3v-1h-3zm0 2v1h2v-1h-2zm0 2v1h3v-1h-3zm0 2v1h2v-1h-2zm0 2v1h3v-1h-3zm0 2v1h2v-1h-2z" fill="url(#ah)" fill-rule="evenodd"/>
   <path d="m345.53463,53.20327c-1.96576.20588-8.76555,1.07322-10.53125,1.90625-.47879.24987-.40391.60877-.4375,1.15625l9.19443-.04419c.28737-.88226 1.01406-1.0221 2.31028-1.0221 1.32103,0 1.43279.41245 1.43279,1.03504v36.03125h4.0625v-35c.00198-.5342.43454-.96677.96875-.96875 1.26246.05673 3.63281-.81811 3.92612-1.09375h-3.92612c-.53421-.00198-.96677-.43455-.96875-.96875v-1.03125h-6.03125z" fill="none" opacity=".77985" stroke="url(#j)"/>
   <path d="m333.53463,59.23452c0,1.5592.09994,2.46715.96875,2.96875l10.53125,2.03125c.37316.18583.5.5.5,1v5h-1c-.554,0-1,.446-1,1s.446,1 1,1h1 2v-12h-2c-1.01653.00135-1-.09568-1-1h-11zm18,1v12h2v-12h-2z" fill="url(#u)" fill-rule="evenodd" stroke="#888a85" stroke-linecap="round" stroke-miterlimit="10"/>
   <g transform="translate(336.03 51.735)" fill="none" opacity=".36194" stroke="#fff">
    <path d="m-1.48438,8.5c0,.50731.07124.89605.45313,1.09375l10.375,1.96875 .09375.03125c.3474.173.67234.48439.84375.84375s.21875.72794.21875,1.0625v-4h-1c-1,0-1.6575-.23202-1.90056-1h-9.08381z"/>
    <path d="m10.5 20v-7.5"/>
    <path d="m16.5 20v-11"/>
   </g>
   <path d="m338.03 59.735v1.0312c0 0.53669-0.43207 0.96875-0.96875 0.96875h-2.3895s-0.64173-0.46004-0.64173-0.96875v-1.0312h4z" fill="url(#ag)" fill-rule="evenodd"/>
   <path d="m356.01725,63.23452h1.03477a.48261,.48261 0 0,1 .48261.48261v3.03477a.48261,.48261 0 0,1 -.48261.48261h-1.03477a.48261,.48261 0 0,1 -.48261-.48261v-3.03477a.48261,.48261 0 0,1 .48261-.48261" fill="#eeeeec" fill-rule="evenodd" stroke="url(#af)" stroke-linecap="round" stroke-miterlimit="10"/>
   <path d="m356.03 64.735h1v1h-1z" fill-rule="evenodd" opacity=".21269"/>
   <path d="m346.03 63.735v1h1v-1h-1zm0 2v1h1v-1h-1zm0 2v1h1v-1h-1zm0 2v1h1v-1h-1z" fill="url(#i)" fill-rule="evenodd" opacity=".15672"/>
   <path d="m352.03 63.735v1h1v-1h-1zm0 2v1h1v-1h-1zm0 2v1h1v-1h-1zm0 2v1h1v-1h-1z" fill="url(#i)" fill-rule="evenodd" opacity=".1"/>
   <path d="m344.53 71.235h2" fill="none" opacity=".53731" stroke="url(#ae)" stroke-linecap="round"/>
   <path d="m346.53 61.235h-1.5c-0.5 0-1.3122-0.51105-1.3895-1h-9.0949" fill="none" opacity=".53358" stroke="#fff" stroke-linecap="round"/>
   <path d="m356.46 55.203h-3.9261c-0.53421-0.00198-0.96677-0.43455-0.96875-0.96875v-1.0312h-6.0312c-1.9658 0.20588-8.7656 1.0732-10.531 1.9062" fill="none" stroke="url(#j)" stroke-linecap="round"/>
   <path d="m338.03 56.735v-1.0312c0-0.53669-0.43207-0.96875-0.96875-0.96875h-2.4208s-0.61048 0.46004-0.61048 0.96875v1.0312h4z" fill="url(#ad)" fill-rule="evenodd"/>
   <path d="m352.03 60.735h1v1h-1z" fill="#fff" fill-rule="evenodd" opacity=".53358"/>
  </g>
  <path transform="matrix(.71287 0 0 .71287 159.19 -222.38)" d="m255 417.86a15.5 15.5 0 1 1 -31 0 15.5 15.5 0 1 1 31 0z" fill="#fff"/>
  <path transform="matrix(.71287 0 0 .71287 159.19 -222.38)" d="m255 417.86a15.5 15.5 0 1 1 -31 0 15.5 15.5 0 1 1 31 0z" fill="url(#h)"/>
  <path transform="matrix(.43692 0 0 .43692 228.84 -106.36)" d="m255 417.86a15.5 15.5 0 1 1 -31 0 15.5 15.5 0 1 1 31 0z"/>
  <path transform="matrix(.71287 0 0 .71287 130.68 -222.38)" d="m255 417.86a15.5 15.5 0 1 1 -31 0 15.5 15.5 0 1 1 31 0z" fill="#fff"/>
  <path transform="matrix(.71287 0 0 .71287 130.68 -222.38)" d="m255 417.86a15.5 15.5 0 1 1 -31 0 15.5 15.5 0 1 1 31 0z" fill="url(#h)"/>
  <path transform="matrix(.43692 0 0 .43692 200.33 -106.36)" d="m255 417.86a15.5 15.5 0 1 1 -31 0 15.5 15.5 0 1 1 31 0z"/>
  <path transform="matrix(.71287 0 0 .71287 152.77 -234.5)" d="m180.01 413.25c-10.026 10.27-20.406 16.414-23.171 13.715s3.1277-13.225 13.153-23.494 20.406-16.414 23.171-13.715-3.1277 13.225-13.153 23.494z" fill="#fff" fill-opacity=".62745" filter="url(#bm)"/>
  <path transform="matrix(.5498 .45375 -.45375 .5498 423.03 -273.33)" d="m262 501.86c0 7.452-2.464 13.5-5.5 13.5s-5.5-6.048-5.5-13.5 2.464-13.5 5.5-13.5 5.5 6.048 5.5 13.5z" fill="#fff" fill-opacity=".43439" filter="url(#bl)"/>
  <path d="m262.66 54.8h78c3.1705 0.93257 2.2066 2.692 2.25 4.25h-83.25c-0.40565-2.1195 0.74064-3.463 3-4.25z" fill="#f00"/>
  <path d="m262.66 54.8h78c3.1705 0.93257 2.2066 2.692 2.25 4.25h-83.25c-0.40565-2.1195 0.74064-3.463 3-4.25z" fill="url(#ab)"/>
  <path d="m241.75 63.307s18.962-1.2309 13.757-5.2505-10.434 3.3735-13.757 5.2505z" fill="url(#ac)" fill-rule="evenodd"/>
  <path transform="translate(-135.09 -344.7)" d="m396.75 404.12a3.625 3.625 0 1 1 -7.25 0 3.625 3.625 0 1 1 7.25 0z" fill="#f00"/>
  <path transform="translate(-135.09 -344.7)" d="m396.75 404.12a3.625 3.625 0 1 1 -7.25 0 3.625 3.625 0 1 1 7.25 0z" fill="url(#x)"/>
  <g transform="matrix(.92417 0 0 .88599 -21.186 57.185)">
   <g transform="matrix(1 0 0 1.0909 281.04 37.766)" opacity=".17241">
    <path d="m37.065 35h4.9352v11h-4.9352z" fill="url(#g)"/>
    <path transform="scale(-1)" d="m-9.9352-46h4.9352v11h-4.9352z" fill="url(#f)"/>
    <path d="m9.9352 35h27.13v11h-27.13z" fill="url(#s)"/>
   </g>
   <g transform="matrix(1.0224 0 0 .68182 280.51 54.291)" opacity=".29714">
    <path d="m37.065 35h4.9352v11h-4.9352z" fill="url(#g)"/>
    <path transform="scale(-1)" d="m-9.9352-46h4.9352v11h-4.9352z" fill="url(#f)"/>
    <path d="m9.9352 35h27.13v11h-27.13z" fill="url(#s)"/>
   </g>
   <path transform="translate(281.04 40.948)" d="m11.78125,19.5c-.1788,0-.27895.02161-.3125.03125s-.00167.00802-.03125.03125c-.00574.00451-.11639.07921-.21875.375l-1.40625,4.5625h27.3125l-1.4375-4.34375v-.03125c-.17394-.42168-.26253-.4977-.3125-.53125-.07021-.04715-.14091-.09375-.5625-.09375h-23.03125z" display="block" fill="none" opacity=".15" stroke="url(#bj)"/>
   <path d="m292.82 58.448c-1.3455 0-2.0618 0.69555-2.4375 1.7812l-1.875 6-0.96875 8.2188h0.96875v6.5938c0 1.3378 1.092 2.4062 2.4375 2.4062h27.156c1.3455 0 2.4375-1.0684 2.4375-2.4062v-6.5938h1l-1-8.2188-1.9375-5.875c-0.47193-1.4295-1.4045-1.9062-2.75-1.9062h-23.031z" display="block" fill="url(#bi)" stroke="#a0670c"/>
   <path d="m319.53768,66.35423-1.875-5.6875c-.18487-.55998-.40962-.80916-.65625-.96875s-.60163-.25-1.15625-.25h-23.03125c-.50041,0-.76447.12082-.96875.28125s-.38605.3929-.53125.8125l-1.84375,5.9375v.0625" display="block" fill="none" opacity=".69349" stroke="url(#r)"/>
   <path d="m292.81893,59.94798c-.41425,0-.54695.07041-.65625.15625s-.25113.26702-.375.625l-1.625,5.21875h28.6875l-1.65625-5.03125c-.20866-.51869-.35798-.68587-.5-.78125s-.35883-.1875-.84375-.1875h-23.03125z" display="block" fill="url(#bh)" opacity=".6"/>
   <path d="m316.18255,59.94798c.41425,0 .54695.07041.65625.15625s.25113.26702.375.625l1.625,5.21875h-4.875v-6h2.21875z" display="block" fill="url(#bg)" opacity=".6705"/>
   <g transform="matrix(.71487 .19155 .19155 -.71487 269.69 63.234)">
    <path transform="matrix(.99999 -.0040858 -.0027049 1 0 0)" d="m54.656 27.469c-2.3814 0-4.3125 1.7261-4.3125 3.9062v10.688c0 2.1802 1.9311 3.9062 4.3125 3.9062h0.84375c2.3814 0 4.3438-1.7234 4.3438-3.9062v-10.688c0-2.1828-1.9624-3.9062-4.3438-3.9062h-0.84375z" fill="url(#bf)" stroke="#204a87" stroke-linecap="round" stroke-linejoin="round" stroke-width="1.3512"/>
    <path transform="matrix(.99999 -.005048 -.0028993 1 0 0)" d="m54.656 28.812c-1.7061 0-3.0938 1.1551-3.0938 2.5938v10.781c0 1.4386 1.3877 2.5938 3.0938 2.5938h0.84375c1.7061 0 3.0938-1.1551 3.0938-2.5938v-10.781c0-1.4386-1.3877-2.5938-3.0938-2.5938h-0.84375z" fill="none" opacity=".5" stroke="url(#be)" stroke-linecap="round" stroke-linejoin="round" stroke-width="1.3512"/>
    <path d="m53.65625,3.30323c.0024.01028.0024.02097 0,.03125v25.41552c.08352,1.41985 2.70684,1.51344 2.875,0l.03125-25.38427c-.0024-.01028-.0024-.02097 0-.03125l-2.90625-.03125z" fill="url(#bd)" stroke="#888a85" stroke-linecap="round" stroke-linejoin="round" stroke-width="1.3512"/>
    <path transform="matrix(.99999 -.0042995 -.0042995 .99999 0 0)" d="m52.392 32.226h0.08782a0.66613 1.6036 0 0 1 0.66613 1.6036v7.4057a0.66613 1.6036 0 0 1 -0.66613 1.6036h-0.08782a0.66613 1.6036 0 0 1 -0.66613 -1.6036v-7.4057a0.66613 1.6036 0 0 1 0.66613 -1.6036" fill="url(#bc)" opacity=".3"/>
    <path transform="matrix(.99999 -.0051174 -.0036123 .99999 0 0)" d="m55.145 32.192a0.97759 1.6036 0 0 1 0.97759 1.6036v7.6527a0.97759 1.6036 0 0 1 -0.97759 1.6036 0.97759 1.6036 0 0 1 -0.97759 -1.6036v-7.6527a0.97759 1.6036 0 0 1 0.97759 -1.6036" fill="url(#bb)" opacity=".3"/>
    <path transform="matrix(.99999 -.0042995 -.0042995 .99999 0 0)" d="m57.798 32.249h0.08782a0.66613 1.6036 0 0 1 0.66613 1.6036v7.4057a0.66613 1.6036 0 0 1 -0.66613 1.6036h-0.08782a0.66613 1.6036 0 0 1 -0.66613 -1.6036v-7.4057a0.66613 1.6036 0 0 1 0.66613 -1.6036" fill="url(#ba)" opacity=".25"/>
   </g>
   <g transform="matrix(-.37004 .64093 .64093 .37004 290.73 31.707)">
    <g transform="matrix(.70711 -.70711 .70711 .70711 -57.461 74.507)">
     <path d="m91 1.1483c-2.6433 1.1601-4.5 3.8049-4.5 6.875 0 2.8711 1.6285 5.3647 4 6.625l0.25601 26.412c0 1.939 1.561 3.5 3.5 3.5s3.5-1.561 3.5-3.5l-0.25601-26.412c2.3715-1.2603 4-3.7539 4-6.625 0-3.0701-1.8567-5.7149-4.5-6.875v5.9375l-1.7188 2h-2.5625l-1.7188-2v-5.9375z" fill="url(#q)" stroke="url(#p)" stroke-dashoffset=".7" stroke-linecap="round" stroke-linejoin="round" stroke-width="1.3512"/>
     <path d="m89.5625,3.96875c-.99483,1.07712-1.625,2.47758-1.625,4.0625 0,2.33892 1.29272,4.35143 3.21875,5.375 .47736.23832.77953.71646.78125,1.25l.25601,26.39569c0,1.18884.87366,2.0625 2.0625,2.0625s2.0625-.87366 2.0625-2.0625l-.25601-26.39569c.00172-.53354.30389-1.01168.78125-1.25 1.92603-1.02357 3.21875-3.03608 3.21875-5.375 0-1.58492-.63017-2.98538-1.625-4.0625v3.125c-.0038.3359-.12309.65296-.34375.90625l-1.71875,2c-.26616.32715-.67202.52821-1.09375.53125h-2.5625c-.42173-.00304-.82759-.2041-1.09375-.53125l-1.71875-2c-.22066-.25329-.33995-.57035-.34375-.90625v-3.125z" fill="none" stroke="url(#o)" stroke-dashoffset=".7" stroke-linecap="round" stroke-width="1.3512"/>
     <path transform="matrix(1 .00038646 .00038359 1 0 0)" d="m93.719 17.562c-0.63915 0-1.125 0.50091-1.125 1.1562l-7.3e-4 20.411c0 0.65534 0.48585 1.1562 1.125 1.1562h0.53125c0.63915 0 1.1562-0.51377 1.1562-1.1562l7.3e-4 -20.411c0-0.64248-0.5171-1.1562-1.1562-1.1562h-0.53125z" fill="url(#n)" opacity=".23106"/>
    </g>
    <path d="m14.732,7.65796 2.47072,2.40443c.18277.18695.29301.43287.31097.6937l.21529,2.84658c.03358.32664-.08046.65122-.31097.88507l-1.96151,1.96151c-.23386.23051-.55843.34455-.88507.31097l-2.84658-.21529c-.26083-.01796-.50675-.1282-.6937-.31097l-2.47072-2.40443" fill="none" stroke="url(#m)" stroke-dashoffset=".7" stroke-linecap="round" stroke-width="1.3512"/>
    <path d="m14.71875,7.40625c-.16976.00044-.33077.04902-.5.0625l2.6875,2.6875c.15742.15522.32146.38105.34375.65625l.21875,2.625c.02953.3378-.0872.65366-.34375.90625l-.875.90625c.68662.19439 1.39129.41107 2,.5 .84227.12305 1.65847.04045 2.59375-.40625 .54319-2.11616.00469-4.49531-1.65625-6.15625-1.23127-1.23127-2.84191-1.78546-4.46875-1.78125zm-6.25,5.875c-.06821.89717.04147,1.77671.34375,2.625 .54441-.28791 1.06498-.54691 1.5625-.71875l-1.90625-1.90625z" fill="url(#l)" opacity=".59052"/>
   </g>
   <g transform="translate(245.04 -8.052)">
    <path d="m55.99999,62.20939c-.4884.01877-.972.09379-1.4375.1875h-.03125c-.34946.07157-.69779.17041-1.03125.28125-.48234.16032-.93272.35785-1.375.59375l.65625,3.125c-.47624.35271-.92407.76518-1.28125,1.25l-3.09375-.625c-.2564.48439-.49078.96836-.65625,1.5-.22987.73853-.37525,1.53743-.40625,2.34375l3.0625,1.03125c.06964.59247.20197,1.18069.4375,1.71875l-2.125,2.375c.27769.44132.58973.86465.9375,1.25l.625.59375c.38822.3554.80392.6851 1.25.96875l2.375-2.125c.28549.12727.56356.22905.875.3125 .29472.07897.61193.1542.90625.1875l1,3.03125c.4884-.01878.97201-.09379 1.4375-.1875h.03125c.34946-.07157.69779-.17042 1.03125-.28125 .48234-.16032.93272-.35785 1.375-.59375l-.65625-3.125c.47624-.35271.92407-.76518 1.28125-1.25l3.09375.625c.2564-.48439.49078-.96836.65625-1.5 .22987-.73853.37525-1.53743.40625-2.34375l-3.0625-1.03125c-.06964-.59247-.20197-1.18069-.4375-1.71875l2.125-2.375c-.27769-.44132-.58973-.86465-.9375-1.25l-.625-.59375c-.38822-.3554-.80392-.6851-1.25-.96875l-2.375,2.125c-.28549-.12727-.56356-.22905-.875-.3125-.29472-.07897-.61193-.1542-.90625-.1875l-1-3.03125zm.125,7c.11351-.01267.22771-.00695.34375,0 .13262.00794.27295.02678.40625.0625 1.06638.28573 1.69199,1.40237 1.40625,2.46875s-1.40237,1.69199-2.46875,1.40625-1.69199-1.40237-1.40625-2.46875c.21877-.81645.92419-1.38006 1.71875-1.46875z" fill="url(#az)" stroke="#2e3436" stroke-linecap="round"/>
    <path transform="translate(36.844 36.709)" d="m18.46875,26.46875-2.09375.59375 .84375,4.03125c.05612.31224-.04417.63218-.2685.8565s-.54426.32462-.8565.2685l-4.0625-.84375-.59375,2.09375 3.96875,1.3125c.30694.1057.54055.3581.62223.67228s.0006.6484-.21598.89022l-2.71875,3.0625 1.46875,1.5 3.09375-2.75c.24182-.21659.57603-.29767.89022-.21598s.56658.31529.67228.62223l1.3125,3.96875 2.09375-.59375-.84375-4.03125c-.05612-.31224.04417-.63218.2685-.8565s.54426-.32462.8565-.2685l4.0625.84375 .59375-2.09375-3.96875-1.3125c-.30694-.1057-.54055-.3581-.62223-.67228s-.0006-.6484.21598-.89022l2.71875-3.0625-1.46875-1.5-3.09375,2.75c-.24182.21658-.57603.29767-.89022.21598s-.56658-.31529-.67228-.62223l-1.3125-3.96875z" fill="none" stroke="url(#ay)" stroke-linecap="round"/>
    <path d="m55.62499,62.55314-3,.875 .9375,4.46875c.02725.15163-.01606.29731-.125.40625s-.25462.15225-.40625.125l-4.5-.9375-.875,3 4.4375,1.46875c.1491.05135.24157.19113.28125.34375s.01146.28878-.09375.40625l-3.03125,3.4375 2.125,2.15625 3.46875-3.0625c.11747-.10521.25363-.13343.40625-.09375s.2924.13215.34375.28125l1.46875,4.4375 3-.875-.9375-4.46875c-.02725-.15163.01607-.29731.125-.40625s.25462-.15225.40625-.125l4.5.9375 .875-3-4.4375-1.46875c-.1491-.05135-.24157-.19113-.28125-.34375s-.01146-.28879.09375-.40625l3.03125-3.4375-2.125-2.15625-3.46875,3.0625c-.11747.10521-.25363.13343-.40625.09375s-.2924-.13215-.34375-.28125l-1.46875-4.4375zm.71875,5.65625c1.656,0 3,1.344 3,3s-1.344,3-3,3-3-1.344-3-3 1.344-3 3-3z" fill="url(#w)" opacity=".93725"/>
    <path d="m56.344 65.709c-3.036 0-5.5 2.464-5.5 5.5s2.464 5.5 5.5 5.5 5.5-2.464 5.5-5.5-2.464-5.5-5.5-5.5zm0 3c1.38 0 2.5 1.12 2.5 2.5s-1.12 2.5-2.5 2.5-2.5-1.12-2.5-2.5 1.12-2.5 2.5-2.5z" fill="url(#ax)"/>
    <path transform="matrix(.9494 0 0 .9494 37.777 38.372)" d="m22.716 34.587a3.1599 3.1599 0 1 1 -6.3198 0 3.1599 3.1599 0 1 1 6.3198 0z" fill="none" stroke="url(#aw)" stroke-linecap="round" stroke-width="1.0533"/>
    <path transform="matrix(1.5823 0 0 -1.5823 25.4 125.94)" d="m22.716 34.587a3.1599 3.1599 0 1 1 -6.3198 0 3.1599 3.1599 0 1 1 6.3198 0z" fill="none" stroke="url(#av)" stroke-linecap="round" stroke-width=".63198"/>
   </g>
   <path d="m292.81893,59.94798c-.41425,0-.54695.07041-.65625.15625s-.25113.26702-.375.625l-1.625,5.21875h4.875v-6h-2.21875z" display="block" fill="url(#au)" opacity=".6"/>
   <g transform="translate(229.69 45.51)">
    <path d="m55.43433,1.94633 1.58363,3.25174 .01156.02003-.02805,1.43158c.00226.00748.00622.01433.01156.02003l9.4048,16.2896c.47187.94093-1.17486,1.97165-1.84268,1.06387l-9.41327-16.25801c-.00226-.00748-.00622-.01433-.01156-.02003l-1.11505-.45115-.01156-.02003-2.1746-3.25772 3.58521-2.06992z" fill="url(#at)" stroke="#888a85" stroke-linecap="round" stroke-linejoin="round"/>
    <path d="m55.29579,2.40019 1.39551,2.87965-.01112,1.3684c.00116.06465.01925.12787.05245.18336l-1.29033.77168c-.03841-.07329-.10028-.1316-.17572-.1656l-1.03183-.44578-1.9233-2.8687 2.98434-1.72301z" fill="url(#as)"/>
   </g>
   <g transform="matrix(-.74008 0 0 .74008 333.65 46.784)">
    <g transform="matrix(.70711 -.70711 .70711 .70711 -57.461 74.507)">
     <path d="m91 1.1483c-2.6433 1.1601-4.5 3.8049-4.5 6.875 0 2.8711 1.6285 5.3647 4 6.625v17.301c0 1.939 1.561 3.5 3.5 3.5s3.5-1.561 3.5-3.5v-17.301c2.3715-1.2603 4-3.7539 4-6.625 0-3.0701-1.8567-5.7149-4.5-6.875v5.9375l-1.7188 2h-2.5625l-1.7188-2v-5.9375z" fill="url(#q)" stroke="url(#p)" stroke-dashoffset=".7" stroke-linecap="round" stroke-linejoin="round" stroke-width="1.3512"/>
     <path d="m89.5625,3.96875c-.99483,1.07712-1.625,2.47758-1.625,4.0625 0,2.33892 1.29272,4.35143 3.21875,5.375 .47736.23832.77953.71646.78125,1.25v17.2847c0,1.18884.87366,2.0625 2.0625,2.0625s2.0625-.87366 2.0625-2.0625v-17.2847c.00172-.53354.30389-1.01168.78125-1.25 1.92603-1.02357 3.21875-3.03608 3.21875-5.375 0-1.58492-.63017-2.98538-1.625-4.0625v3.125c-.0038.3359-.12309.65296-.34375.90625l-1.71875,2c-.26616.32715-.67202.52821-1.09375.53125h-2.5625c-.42173-.00304-.82759-.2041-1.09375-.53125l-1.71875-2c-.22066-.25329-.33995-.57035-.34375-.90625v-3.125z" fill="none" stroke="url(#o)" stroke-dashoffset=".7" stroke-linecap="round" stroke-width="1.3512"/>
     <path transform="matrix(1 .00038646 .00038359 1 0 0)" d="m93.719 17.562c-0.63915 0-1.125 0.50091-1.125 1.1562l0.00147 14.678c0 0.65534 0.48585 1.1562 1.125 1.1562h0.53125c0.63915 0 1.1562-0.51377 1.1562-1.1562l-0.00147-14.678c0-0.64248-0.5171-1.1562-1.1562-1.1562h-0.53125z" fill="url(#n)" opacity=".23106"/>
    </g>
    <path d="m14.732,7.65796 2.47072,2.40443c.18277.18695.29301.43287.31097.6937l.21529,2.84658c.03358.32664-.08046.65122-.31097.88507l-1.96151,1.96151c-.23386.23051-.55843.34455-.88507.31097l-2.84658-.21529c-.26083-.01796-.50675-.1282-.6937-.31097l-2.47072-2.40443" fill="none" stroke="url(#m)" stroke-dashoffset=".7" stroke-linecap="round" stroke-width="1.3512"/>
    <path d="m14.71875,7.40625c-.16976.00044-.33077.04902-.5.0625l2.6875,2.6875c.15742.15522.32146.38105.34375.65625l.21875,2.625c.02953.3378-.0872.65366-.34375.90625l-.875.90625c.68662.19439 1.39129.41107 2,.5 .84227.12305 1.65847.04045 2.59375-.40625 .54319-2.11616.00469-4.49531-1.65625-6.15625-1.23127-1.23127-2.84191-1.78546-4.46875-1.78125zm-6.25,5.875c-.06821.89717.04147,1.77671.34375,2.625 .54441-.28791 1.06498-.54691 1.5625-.71875l-1.90625-1.90625z" fill="url(#l)" opacity=".59052"/>
   </g>
   <path d="m288.91 66.451-0.84375 7.4972h32.938l-0.875-7.4972h-31.219z" display="block" fill="url(#ar)"/>
   <path d="m289.47518,66.47923v.0625l-.8125,6.9375c.47889.07571.8345.484.84375.96875v6.59375c0,.79365.62143,1.40625 1.4375,1.40625h27.15625c.81606,0 1.4375-.6126 1.4375-1.40625v-6.59375c-.00393-.50692.37204-.9366.875-1l-.875-7.09375" display="block" fill="none" opacity=".69349" stroke="url(#r)"/>
   <path d="m288.53769,72.94798h32a.5,.5 0 0,1 .5.5 .5,.5 0 0,1 -.5.5h-32a.5,.5 0 0,1 -.5-.5 .5,.5 0 0,1 .5-.5" fill="#fff" opacity=".69349"/>
   <path d="m289.01 73.948v7.0938c0 1.0657 0.85674 1.9062 1.9375 1.9062h27.156c1.0808 0 1.9375-0.84051 1.9375-1.9062v-7.0938h-31.031z" display="block" fill="url(#aq)" opacity=".35"/>
   <path d="m288.04 73.948h33.062v1h-33.062z" fill="#a0670c"/>
   <path d="m289.53769,65.94798h30a.5,.54419 0 0,1 .5.54419 .5,.54419 0 0,1 -.5.54419h-30a.5,.54419 0 0,1 -.5-.54419 .5,.54419 0 0,1 .5-.54419" fill="#fcf3e6"/>
   <path d="m292.81893,59.94798c-.41425,0-.54695.07041-.65625.15625s-.25113.26702-.375.625l-1.625,5.21875h28.6875l-1.65625-5.03125c-.20866-.51869-.35798-.68587-.5-.78125s-.35883-.1875-.84375-.1875h-23.03125z" display="block" fill="url(#ap)" opacity=".4"/>
  </g>
 </g>
</svg>
